<svg xmlns="http://www.w3.org/2000/svg" width="1182" height="1330" viewBox="0 0 1182 1330" version="1.1">
	<path d="M 660 67.018 C 616.084 72.120, 582.063 104.361, 569.427 152.849 C 565.625 167.438, 564.938 177.126, 567.190 184.362 C 572.264 200.665, 582.883 217.090, 596.679 229.974 L 604.394 237.179 606.584 232.219 C 609.294 226.077, 610.548 225.247, 613.324 227.759 C 614.521 228.841, 617.969 231.364, 620.987 233.364 C 627.479 237.666, 625.223 238.335, 617.816 234.303 C 612.045 231.162, 612.165 231.073, 608.880 241 C 607.697 244.575, 606.593 247.659, 606.428 247.853 C 606.009 248.345, 597.240 240.210, 586.523 229.390 C 580.049 222.854, 575.757 217.345, 571.331 209.890 C 562.366 194.790, 561.626 192.578, 563.001 184.995 C 564.047 179.225, 563.978 178.606, 562.065 176.569 C 560.519 174.924, 560 173.050, 560 169.117 L 560 163.864 556.969 166.022 C 551.740 169.745, 547.634 179.247, 547.592 187.721 C 547.558 194.433, 547.895 195.597, 552.374 204.221 C 555.024 209.325, 558.682 215.764, 560.504 218.530 C 562.325 221.297, 567.070 229.847, 571.049 237.530 C 588.380 271.002, 598.644 284.763, 610.888 290.943 C 635.484 303.360, 696.991 315.682, 723.742 313.553 C 744.393 311.909, 747.557 309.098, 766.011 276 C 768.925 270.775, 772.838 264.327, 774.709 261.672 C 780.640 253.250, 782.872 243.519, 780.972 234.367 C 779.743 228.446, 778.570 227.549, 777.548 231.750 C 777.180 233.263, 774.711 239, 772.062 244.500 C 766.983 255.043, 760.239 262.799, 752.942 266.492 C 751.049 267.450, 748.487 269.160, 747.249 270.292 L 744.998 272.351 745.651 261.675 C 746.183 252.969, 746.050 251, 744.929 251 C 744.127 251, 744.481 250.351, 745.779 249.442 C 748.643 247.436, 749.975 248.320, 750.100 252.309 C 750.155 254.064, 750.537 256.625, 750.950 258 C 751.689 260.464, 751.782 260.418, 757.302 254.821 C 771.784 240.139, 780.440 210.493, 780.462 175.500 C 780.473 158.088, 780.246 155.597, 777.744 145.700 C 772.214 123.822, 760.756 105.256, 743.277 89.855 C 737.441 84.713, 730.095 79.571, 729.473 80.193 C 729.288 80.379, 729.596 84.124, 730.160 88.516 C 732.077 103.462, 730.614 144.242, 727.525 161.966 C 725.197 175.327, 718.856 200.478, 717.465 201.868 C 716.135 203.198, 716.247 200.197, 717.987 187.848 C 724.618 140.779, 725.507 79.903, 719.631 75.129 C 717.793 73.635, 705.211 70.046, 696.546 68.545 C 685.625 66.652, 669.094 65.961, 660 67.018 M 687.674 73.704 C 685.947 74.150, 685.886 75.408, 686.549 96.838 C 687.328 122.049, 686.054 149.879, 682.950 175.424 C 681.886 184.183, 681.231 191.564, 681.495 191.828 C 683.180 193.513, 689.170 170.484, 691.724 152.500 C 693.578 139.451, 694.256 86.924, 692.689 77.750 C 691.893 73.088, 691.447 72.729, 687.674 73.704 M 550.362 223.126 C 547.441 228.551, 547.213 250.755, 549.960 262.417 C 551.115 267.322, 553.003 273.013, 554.156 275.064 C 556.434 279.116, 560.801 281.930, 561.420 279.744 C 563.759 271.483, 567.013 257.452, 567.507 253.500 C 568.099 248.768, 567.776 247.804, 561.475 235.500 C 553.091 219.129, 552.731 218.728, 550.362 223.126 M 571.419 261.750 C 571.078 263.262, 570.407 266.077, 569.927 268.005 C 561.296 302.688, 563.556 328.295, 577.737 356.468 C 585.710 372.308, 600.257 390.136, 609.746 395.697 C 619.750 401.560, 633.494 403.561, 643.360 400.592 C 657.274 396.405, 688.189 369.429, 703.632 348 C 708.980 340.579, 720 322.883, 720 321.716 C 720 321.488, 713.138 321.035, 704.750 320.709 C 687.424 320.036, 672.375 317.668, 650 312.096 C 603.693 300.563, 593.724 293.996, 576.604 263.750 C 573.530 258.318, 572.299 257.843, 571.419 261.750 M 483.500 276.370 C 429.546 287.575, 397.213 304.790, 369.205 337.221 C 355.915 352.610, 354.991 355.002, 363.899 350.960 C 366.318 349.863, 368.489 349.156, 368.723 349.390 C 368.957 349.623, 364.502 353.321, 358.824 357.607 C 339.538 372.163, 334.443 378.004, 323.584 398 C 320.448 403.775, 314.196 413.038, 309.691 418.584 C 294.622 437.134, 281.572 454.076, 273.289 465.839 C 268.773 472.252, 262.282 480.766, 258.864 484.757 C 248.886 496.408, 248.483 497.293, 234.179 539 C 229.735 551.956, 229.548 552.963, 229.524 564 C 229.496 577.160, 230.915 580.963, 241.179 595.231 C 260.815 622.530, 272.482 633.580, 295.839 647 C 302.061 650.575, 313.192 656.987, 320.575 661.250 C 327.958 665.513, 334.198 669, 334.443 669 C 334.687 669, 334.035 667.074, 332.994 664.720 C 326.616 650.300, 331.551 629.473, 345.330 612.663 C 358.517 596.575, 373.328 589.038, 391.809 589.012 C 401.439 588.998, 401.439 589.031, 391.908 581.427 C 388.079 578.371, 380.719 570.794, 375.553 564.589 C 365.449 552.452, 357.786 545.487, 346.122 537.838 C 337.451 532.152, 339.386 531.335, 349.292 536.500 C 352.984 538.425, 356.259 540, 356.570 540 C 357.526 540, 355.834 535.700, 353.295 531.677 C 351.968 529.574, 351.024 527.427, 351.198 526.905 C 351.763 525.210, 358.812 532.977, 361.087 537.802 C 363.346 542.593, 366.721 547, 368.132 547 C 368.563 547, 370.074 545.023, 371.490 542.607 C 373.886 538.518, 374.018 537.652, 373.389 530.107 C 372.963 525.003, 373.077 522, 373.696 522 C 374.922 522, 377 526.432, 377 529.047 C 377 535.369, 385.800 526.063, 405.773 498.617 C 425.584 471.395, 428.472 462.653, 428.426 430.052 C 428.400 411.278, 428.561 409.009, 429.723 411.857 C 433.777 421.793, 435.889 443.144, 434.039 455.500 C 431.083 475.244, 429.408 479.172, 416.982 495.523 L 409.264 505.680 412.465 514.090 C 419.317 532.089, 434.839 565.002, 438.101 568.450 C 439.309 569.727, 439.251 575, 438.029 575 C 434.376 575, 417.284 544.268, 411.472 527.250 C 408.670 519.048, 407.077 516.950, 406.916 521.250 C 406.869 522.487, 406.505 526.115, 406.106 529.310 C 405.403 534.945, 405.962 541.772, 407.876 550.948 C 408.696 554.877, 408.522 555.809, 406.380 558.948 C 402.977 563.935, 401.702 569.460, 402.493 575.787 C 403.113 580.750, 403.647 581.636, 409.123 586.777 C 412.399 589.853, 416.036 594.071, 417.204 596.150 C 418.373 598.228, 421.031 601.298, 423.112 602.970 L 426.896 606.011 429.928 601.604 C 433.190 596.863, 443.478 578.089, 450.809 563.500 C 456.226 552.719, 455.666 553.484, 457.226 554.745 C 458.268 555.586, 467.892 559.773, 487.750 568.022 C 490.409 569.127, 490.469 569.633, 488.500 574.346 C 486.608 578.875, 486.617 579, 488.845 579 C 491.171 579, 493.998 575.944, 494.006 573.421 C 494.010 572.357, 495.290 570.773, 496.878 569.870 C 498.692 568.838, 500.390 566.547, 501.507 563.620 C 503.563 558.237, 505.513 557.452, 504.722 562.327 C 504.237 565.314, 495.416 578.373, 492.617 580.248 C 492.003 580.660, 490.320 580.749, 488.878 580.447 C 486.428 579.933, 485.940 580.508, 481.453 589.199 C 475.845 600.060, 468.132 612.949, 461.791 622.054 L 457.302 628.500 461.274 633.492 C 463.934 636.835, 466.664 639.022, 469.537 640.113 C 475.835 642.503, 479.481 645.437, 482.771 650.762 C 484.381 653.368, 487.116 657.010, 488.849 658.856 C 490.582 660.701, 492 662.443, 492 662.725 C 492 663.007, 495.321 667.347, 499.380 672.369 C 519.040 696.693, 528.213 717.626, 531.003 744.529 C 531.787 752.088, 532.600 755.094, 535.024 759.388 C 537.552 763.869, 538.032 765.754, 537.884 770.636 C 537.735 775.546, 538.233 777.477, 540.945 782.500 C 543.790 787.771, 544.133 789.215, 543.768 794.391 C 543.388 799.778, 542.998 800.611, 539.215 804.141 C 536.244 806.912, 534.197 808, 531.955 808 C 530.238 808, 528.983 808.372, 529.167 808.826 C 529.350 809.280, 533.534 817.578, 538.465 827.264 L 547.431 844.876 557.465 845.195 L 567.500 845.514 571.259 842.045 C 581.899 832.227, 600.993 793.395, 608.529 766.250 C 610.502 759.140, 611.738 758.296, 612.190 763.750 L 612.500 767.500 626.500 767.712 C 634.200 767.828, 640.809 767.941, 641.186 767.962 C 643.008 768.063, 631.489 802.997, 625.694 814.947 C 621.269 824.071, 611.322 839.865, 607.297 844.156 L 604.807 846.811 612.653 847.548 C 622.621 848.484, 644.623 846.605, 660.943 843.425 C 667.786 842.091, 673.491 841, 673.619 841 C 673.747 841, 671.125 838.413, 667.793 835.250 C 656.054 824.110, 648.114 811.445, 642.445 794.820 L 640.167 788.140 643.083 779.070 C 644.687 774.081, 646 769.338, 646 768.529 C 646 767.716, 647.418 766.690, 649.168 766.236 C 654.286 764.910, 654.580 763.541, 652.689 749.830 C 651.581 741.799, 650.990 730.923, 650.994 718.640 L 651 699.780 654.056 694.046 C 663.683 675.985, 684.680 653.707, 698.452 646.944 C 705.954 643.260, 716 639.644, 716 640.628 C 716 640.866, 713.470 644.042, 710.378 647.687 C 690.512 671.106, 672.929 711.120, 665.463 749.902 C 664.679 753.974, 663.740 758.245, 663.375 759.395 C 662.788 761.242, 662.902 761.326, 664.356 760.120 C 665.260 759.369, 666 757.937, 666 756.937 C 666 752.697, 667.868 754.430, 668.492 759.249 C 670.303 773.226, 676.627 791.346, 683.968 803.594 C 689.908 813.504, 691.775 815.829, 692.316 813.993 C 694.128 807.847, 698.576 789.061, 701.069 777.027 C 702.718 769.068, 706.057 754.526, 708.490 744.712 C 712.223 729.650, 712.822 725.896, 712.329 720.618 C 711.842 715.404, 712.126 713.545, 714.036 709.433 C 715.789 705.659, 716.367 702.503, 716.497 696 C 716.632 689.197, 717.215 686.217, 719.420 681.072 C 722.397 674.126, 722.373 672.782, 719.109 664 C 716.655 657.397, 716.325 645.561, 718.402 638.659 C 720.166 632.799, 719.443 632.695, 710.621 637.544 C 707.074 639.494, 703.971 640.731, 703.724 640.294 C 699.010 631.947, 683.290 563.101, 685.637 561.085 C 686.112 560.677, 693.925 558.623, 703 556.520 C 712.075 554.417, 720.018 552.509, 720.650 552.279 C 721.337 552.030, 722.025 553.401, 722.357 555.681 C 724.256 568.721, 725.260 574, 725.841 574 C 726.489 574, 730.086 553.176, 730.029 549.750 C 730.013 548.788, 729.615 548, 729.145 548 C 728.674 548, 728.010 545.013, 727.669 541.362 C 727.328 537.712, 726.353 533.662, 725.502 532.362 C 724.650 531.063, 724.382 530, 724.904 530 C 726.610 530, 729.757 534.898, 730.521 538.741 L 731.268 542.500 733.554 537.500 C 735.481 533.286, 735.756 531.400, 735.303 525.500 C 734.911 520.394, 735.352 515.804, 736.934 508.532 C 740.027 494.312, 740.368 494.336, 740.023 508.750 C 739.902 513.837, 740.053 518, 740.359 518 C 740.665 518, 742.121 515.862, 743.595 513.250 C 749.619 502.568, 762.830 484.459, 766.050 482.469 C 767.950 481.295, 766.913 483.736, 762.867 489.963 C 758.098 497.302, 746.914 520.156, 744.501 527.493 C 736.654 551.351, 731.003 588.312, 731.001 615.790 C 731 624.513, 730.695 626.494, 728.999 628.790 C 726.900 631.632, 724.047 643.124, 724.017 648.856 C 723.993 653.566, 726.770 663.785, 729.305 668.313 C 731.408 672.071, 731.413 672.194, 729.628 676.813 C 726.245 685.565, 723.611 694.944, 724.333 695.666 C 724.728 696.061, 727.530 693.887, 730.559 690.833 C 739.258 682.065, 750.536 676.965, 761 677.068 L 765.500 677.112 757.992 679.825 C 745.285 684.416, 737.256 690.125, 729.118 700.352 C 722.978 708.068, 720 714.676, 720 720.583 C 720 724.735, 721.289 726.525, 722.280 723.750 C 722.525 723.063, 723.046 722.796, 723.437 723.157 C 723.828 723.518, 723.487 725.093, 722.680 726.657 C 719.285 733.234, 710.292 768.882, 708.055 784.632 C 707.533 788.306, 706.168 792.315, 704.650 794.632 C 702.576 797.798, 702.080 799.862, 701.920 806 C 701.706 814.206, 701.137 815.854, 696.786 820.861 C 693.131 825.069, 691.867 828.114, 691.052 834.682 C 690.329 840.512, 691.131 840.624, 693.955 835.087 C 699.834 823.565, 718.002 818.069, 735.540 822.509 C 755.979 827.682, 775.699 846.097, 781.072 865.025 L 782.342 869.500 783.462 861.500 C 784.656 852.972, 785.650 850.525, 790.153 845.022 C 791.790 843.022, 793 840.343, 793 838.718 C 793 837.164, 795.508 829.504, 798.573 821.696 C 820.539 765.735, 833.563 724.354, 837.475 698.086 C 839.167 686.722, 840.892 653.370, 840.841 633 C 840.809 620.498, 843.941 564.320, 845.496 549.500 C 848.422 521.617, 851.353 458.338, 850.708 437.004 C 849.358 392.385, 839.089 370.318, 808.633 346.589 C 796.450 337.097, 773.735 323.024, 756.144 314.069 L 751.788 311.851 749.511 313.989 C 748.259 315.165, 744.595 317.200, 741.368 318.510 L 735.500 320.893 734.841 344.196 C 734.236 365.584, 731.305 406.149, 728.972 425.423 C 728.444 429.781, 728.122 433.381, 728.256 433.423 C 736.351 435.980, 737.619 440.386, 735.470 458.500 C 734.557 466.200, 733.216 473.926, 732.489 475.670 C 729.980 481.693, 729.224 481.759, 700.500 478.454 C 670.127 474.959, 671.226 475.800, 672.372 456.929 C 673.561 437.340, 675.567 431.438, 681.664 429.590 L 684.665 428.681 686.328 410.090 C 687.242 399.866, 688.270 387.900, 688.611 383.500 L 689.232 375.500 682.366 382.138 C 672.126 392.039, 659.646 401.590, 652.479 405.010 C 626.801 417.265, 600.359 406.407, 579.470 375.028 C 563.231 350.635, 556.076 326.658, 557.275 300.643 L 557.829 288.620 553.664 284.851 C 548.373 280.062, 548 280.092, 548 285.296 C 548 303.021, 531.974 441.359, 529.652 443.682 C 529.327 444.006, 498.082 437.638, 492.106 436.029 C 489.894 435.433, 487.821 434.519, 487.499 433.998 C 487.177 433.477, 487.618 429.334, 488.480 424.791 C 495.020 390.315, 500.230 341.542, 502.589 292.705 C 503.291 278.161, 503.517 277.777, 512.365 276.124 C 519.382 274.813, 519.163 274, 511.792 274 C 508.194 274, 503.956 273.786, 502.375 273.524 C 500.794 273.262, 492.300 274.543, 483.500 276.370 M 424 307.547 C 424 307.912, 425.053 309.463, 426.340 310.993 C 427.628 312.523, 430.733 317.763, 433.240 322.637 C 446.227 347.883, 452.325 380.231, 450.073 411.941 C 449.509 419.883, 449.218 426.551, 449.425 426.758 C 449.977 427.311, 453.776 410.631, 454.950 402.500 C 460.303 365.411, 446.060 319.909, 425.250 307.620 C 424.563 307.214, 424 307.181, 424 307.547 M 809.334 377.464 C 783.940 389.009, 756.096 429.881, 748.469 466.805 C 746.932 474.247, 747.132 477.412, 748.853 472.889 C 763.547 434.280, 790.690 393.635, 810.961 379.883 C 818.599 374.702, 817.852 373.591, 809.334 377.464 M 479.230 439.551 C 475.921 441.869, 475.272 443.620, 472.526 457.643 C 467.397 483.830, 466.979 483.253, 496 490.048 C 522.371 496.223, 525.335 496.474, 528.492 492.804 C 529.767 491.321, 531.333 487.721, 531.970 484.804 C 537.636 458.867, 537.941 454.802, 534.504 451.005 C 533.423 449.810, 528.046 448.048, 519.170 445.979 C 511.651 444.227, 501.143 441.714, 495.819 440.396 C 484.455 437.584, 482.203 437.469, 479.230 439.551 M 683.212 439.245 C 682.574 440.014, 681.532 446.119, 680.896 452.813 C 679.594 466.524, 680.029 467.999, 685.372 468.001 C 688.993 468.002, 717.561 471.601, 721.198 472.514 C 722.690 472.888, 724.060 472.615, 724.701 471.814 C 726.992 468.954, 729.278 445.877, 727.548 443.078 C 727.122 442.389, 725.953 442.041, 724.949 442.303 C 723.183 442.765, 695.165 439.907, 687.936 438.527 C 685.424 438.048, 684.029 438.260, 683.212 439.245 M 483.573 447.882 C 482.598 449.460, 477.886 473.170, 478.212 474.861 C 478.405 475.863, 480.476 476.837, 484.006 477.584 C 487.028 478.224, 496.849 480.418, 505.831 482.460 C 514.813 484.501, 522.397 485.936, 522.684 485.649 C 523.622 484.712, 528.982 458.780, 528.425 457.878 C 528.126 457.395, 527.216 457, 526.403 457 C 525.078 457, 489.937 448.717, 485.834 447.438 C 484.918 447.152, 483.901 447.352, 483.573 447.882 M 289 479.516 C 282.067 481.217, 276 483.750, 276 484.944 C 276 485.497, 277.287 485.491, 279.243 484.930 C 289.542 481.977, 310.319 484.846, 323.406 491.029 C 326.864 492.663, 330.121 494, 330.643 494 C 331.165 494, 334.896 496.037, 338.935 498.527 C 342.974 501.018, 346.517 502.816, 346.809 502.524 C 347.590 501.744, 338.279 493.293, 332.500 489.538 C 325.698 485.118, 319.085 482.320, 309.897 479.974 C 301.035 477.711, 296.740 477.617, 289 479.516 M 679.330 481.582 C 678.526 483.679, 680.637 518.757, 682.342 531.631 C 683.471 540.149, 683.616 540.496, 686.009 540.393 C 688.772 540.275, 719.137 531.978, 720.122 531.072 C 720.465 530.757, 721.016 520.574, 721.347 508.442 L 721.950 486.384 710.225 485.112 C 697.636 483.746, 684.583 481.628, 681.758 480.492 C 680.572 480.015, 679.798 480.363, 679.330 481.582 M 473.054 498.250 C 471.864 502.788, 469.288 512.501, 467.329 519.834 C 465.306 527.412, 464.145 533.545, 464.640 534.040 C 465.397 534.797, 493.468 547.537, 498.246 549.293 C 500.507 550.123, 502.374 546.413, 507.956 530 C 510.294 523.125, 512.595 516.600, 513.069 515.500 C 514.468 512.255, 517.153 500.820, 516.637 500.304 C 516.376 500.043, 509.264 498.328, 500.831 496.493 C 492.399 494.658, 483.531 492.446, 481.124 491.578 C 478.718 490.710, 476.404 490, 475.984 490 C 475.563 490, 474.245 493.712, 473.054 498.250 M 287 496.537 C 278.406 498.484, 269.754 502.820, 263 508.566 C 255.277 515.136, 255.649 515.554, 265.169 511.003 C 278.172 504.787, 287.389 502.655, 301.500 502.598 C 320.085 502.524, 333.136 507.010, 348.960 518.910 C 358.012 525.717, 359.270 525.341, 352.318 517.908 C 336.217 500.696, 308.571 491.650, 287 496.537 M 662.338 521.290 C 655.748 528.005, 648.250 536.280, 645.676 539.678 C 641.058 545.772, 628.093 566.546, 622.537 576.755 C 619.305 582.694, 619.209 582.739, 615.716 579.991 C 612.111 577.155, 607.672 576.519, 601.619 577.972 C 596.537 579.191, 596.261 579.142, 591.430 576.170 C 585.391 572.454, 579.201 570.940, 574.439 572.014 C 570.911 572.809, 570.792 572.724, 559.192 561.049 C 540.016 541.750, 516.956 520.636, 516.108 521.600 C 514.404 523.537, 505.697 550.422, 505.613 554.008 C 505.528 557.646, 505.867 558.055, 513.512 563.536 C 524.402 571.343, 540.167 584.391, 550.311 593.993 L 558.729 601.961 561.995 590.517 C 566.017 576.425, 566.850 575.530, 575.232 576.297 C 583.734 577.076, 588.093 578.498, 592.351 581.881 C 594.326 583.451, 597.755 585.025, 599.971 585.379 C 602.187 585.734, 604 586.482, 604 587.042 C 604 587.602, 605.264 587.125, 606.810 585.982 C 609.708 583.840, 613.842 584.318, 615.492 586.987 C 615.989 587.792, 616.572 587.771, 617.608 586.911 C 618.726 585.982, 619.415 586.054, 620.769 587.241 C 621.721 588.076, 623.955 589.496, 625.733 590.396 C 631.280 593.206, 633.778 602.193, 631.025 609.435 C 629.619 613.132, 628.644 612.645, 625.954 606.902 C 623.522 601.709, 619.902 598, 617.266 598 C 616.100 598, 616.229 598.723, 617.901 601.557 C 620.557 606.058, 620.538 606.622, 617.406 616.948 C 613.620 629.426, 611.950 630.812, 605.764 626.614 C 603.445 625.041, 601.780 624.525, 600.874 625.099 C 596.637 627.783, 584.078 625.232, 579.630 620.784 C 577.595 618.749, 575.275 617.588, 572.551 617.242 C 567.535 616.606, 565 615.359, 565 613.527 C 565 612.622, 565.960 612.190, 567.701 612.312 C 570.162 612.483, 570.507 612.056, 571.582 607.500 C 572.232 604.750, 573.696 599.206, 574.837 595.180 L 576.911 587.861 573.488 586.430 C 571.605 585.644, 569.677 585, 569.204 585 C 568.730 585, 567.061 589.612, 565.495 595.250 C 562.002 607.818, 561.441 609, 558.965 609 C 557.394 609, 557 609.687, 557 612.423 C 557 618.821, 564.029 624, 572.711 624 C 574.468 624, 576.470 624.862, 577.593 626.102 C 581.831 630.786, 591.174 633.088, 597.488 631.004 C 600.604 629.976, 601.393 630.045, 602.990 631.491 C 605.840 634.070, 611.429 635.009, 614.487 633.422 C 617.530 631.844, 618.584 632.628, 623.997 640.496 L 627.302 645.300 626.640 661.400 C 625.845 680.708, 624.404 691.977, 619.010 721.064 C 615.672 739.066, 614.981 744.847, 615.214 752.789 L 615.500 762.500 625.355 762.787 C 634.445 763.053, 648.523 761.810, 649.694 760.639 C 649.968 760.365, 649.646 757.972, 648.978 755.321 C 648.196 752.214, 647.503 735.921, 647.029 709.500 C 646.194 662.881, 645.306 656.304, 636.465 631.235 C 632.182 619.092, 632.141 618.853, 633.645 614.707 C 634.485 612.393, 635.250 607.488, 635.346 603.808 L 635.522 597.116 655.436 575.968 C 675.075 555.112, 675.368 554.854, 676.645 557.291 C 677.357 558.651, 678.715 560.061, 679.664 560.424 C 681.287 561.047, 681.288 560.976, 679.691 559.211 C 678.758 558.180, 677.510 554.719, 676.919 551.519 C 675.964 546.353, 676.056 545.412, 677.742 543.101 C 679.587 540.572, 679.591 540.209, 677.894 530 C 676.934 524.225, 676.115 517.389, 676.074 514.809 C 676.033 512.229, 675.622 509.884, 675.160 509.599 C 674.697 509.313, 668.928 514.574, 662.338 521.290 M 456.353 533.466 C 451.238 537.048, 448.155 552.039, 452.368 552.838 C 453.703 553.091, 454.004 552.816, 453.423 551.875 C 451.439 548.665, 455.159 537.167, 458.947 534.801 C 460.076 534.096, 461 533.177, 461 532.759 C 461 531.525, 458.603 531.890, 456.353 533.466 M 888.925 543.915 C 881.273 544.991, 869.997 548.518, 860.837 552.700 L 853.173 556.199 852.582 561.850 C 850.849 578.424, 847.624 653.916, 848.606 654.927 C 848.834 655.162, 849.579 654.633, 850.260 653.751 C 850.942 652.869, 857.345 644.450, 864.489 635.042 C 871.634 625.634, 877.626 618.377, 877.805 618.915 C 878.420 620.759, 865.862 643.961, 857.054 657.256 L 848.248 670.546 847.567 681.023 C 845.744 709.070, 836.387 744.490, 817.989 793 C 815.173 800.425, 810.821 811.900, 808.319 818.500 C 805.817 825.100, 802.922 833.417, 801.884 836.982 C 800.847 840.547, 798.483 845.947, 796.631 848.982 C 791.169 857.935, 790.661 859.232, 790.366 864.990 C 789.650 878.952, 785.384 888.539, 776.327 896.540 C 768.354 903.584, 766.009 907.230, 766.004 912.593 C 766.002 914.845, 765.125 919.120, 764.055 922.093 C 762.985 925.067, 761.369 929.525, 760.464 932 C 756.789 942.056, 755.235 954.217, 756.605 962.212 C 762.009 993.764, 761.818 1009.278, 755.847 1023.958 C 753.731 1029.160, 752 1033.802, 752 1034.273 C 752 1034.744, 755.938 1036.974, 760.750 1039.229 C 774.821 1045.821, 778.820 1048.658, 791.500 1061.041 C 805.205 1074.425, 811.167 1078.004, 824.852 1081.067 C 848.577 1086.376, 887.923 1083.545, 919.250 1074.274 L 928 1071.685 928 1065.024 C 928 1043.708, 915.706 1029.501, 892.312 1023.784 C 882.585 1021.408, 877.117 1017.468, 872.420 1009.454 C 869.053 1003.708, 867.464 1002.496, 860 999.984 C 852.537 997.472, 846.521 997.745, 837.210 1001.018 C 830.403 1003.410, 829.356 1003.481, 831.055 1001.434 C 834.029 997.850, 838.338 996.609, 848 996.554 C 853.225 996.524, 858.995 996.833, 860.821 997.239 C 866.356 998.471, 864.384 994.965, 857.551 991.424 C 851.815 988.450, 848.616 985.149, 852.632 986.348 C 859.190 988.304, 860 988.275, 860 986.076 C 860 982.072, 857.128 976.979, 853.883 975.227 C 848.924 972.551, 842.509 966.091, 843.663 964.937 C 844.310 964.290, 846.233 965.161, 849.264 967.476 C 854.748 971.663, 855 971.711, 855 968.565 C 855 963.502, 853.363 961.251, 849.317 960.754 C 847.218 960.496, 837.175 958.901, 827 957.210 C 816.825 955.518, 803.550 953.373, 797.500 952.442 C 786.495 950.749, 768.563 945.720, 767.522 944.036 C 767.212 943.534, 769.281 943.325, 772.235 943.560 C 775.131 943.791, 783.575 944.457, 791 945.042 C 808.915 946.451, 825.350 948.556, 843 951.701 C 862.327 955.145, 874.479 955.354, 876.967 952.287 C 881.573 946.605, 884.666 926.129, 882.612 914.910 L 881.772 910.319 888.416 902.942 C 899.547 890.583, 901.446 884.671, 905.920 848.424 C 907.597 834.844, 909.408 824.111, 910.322 822.344 C 913.492 816.213, 920.443 794.408, 931.598 755.602 C 942.937 716.154, 945.494 708.411, 944.510 716.500 C 943.427 725.405, 939.838 749.631, 939.324 751.500 C 937.992 756.354, 941.033 750.773, 944.773 741.500 C 964.788 691.882, 974.163 651.315, 972.704 620.646 C 971.241 589.902, 956.702 565.108, 932 551.232 C 921.101 545.110, 902.677 541.980, 888.925 543.915 M 581.004 586.750 C 581.017 589.333, 585.498 594.069, 590.097 596.361 C 596.076 599.341, 606.104 599.934, 611.500 597.628 L 614.500 596.345 612.111 595.063 C 608.463 593.105, 604 592.008, 604 593.070 C 604 596.015, 592.848 593, 588.452 588.866 C 585.677 586.256, 580.995 584.926, 581.004 586.750 M 382.788 595.551 C 358.275 601.495, 337 626.782, 337 649.974 C 337 655.542, 339.514 664.083, 342.489 668.624 C 343.857 670.712, 358.372 681.002, 359.944 680.999 C 360.250 680.998, 360.521 676.836, 360.546 671.749 C 360.598 661.137, 362.499 654.814, 368.417 645.562 C 378.896 629.180, 397.447 616.702, 417.323 612.664 L 423.146 611.482 416.627 606.558 C 413.042 603.850, 410.323 601.286, 410.586 600.861 C 411.923 598.697, 398.895 593.954, 392 594.095 C 390.075 594.134, 385.930 594.790, 382.788 595.551 M 417.500 619.951 C 393.863 626.169, 375.715 641.822, 369.075 661.718 C 364.351 675.875, 367.733 685.999, 380.034 694.524 C 385.099 698.034, 385.962 697.160, 385.985 688.500 C 386.034 670.282, 407.689 649.994, 434.500 643.047 C 437.250 642.334, 443.673 641.245, 448.772 640.626 L 458.045 639.500 450.061 630.374 C 438.857 617.567, 433.312 615.792, 417.500 619.951 M 784.368 625.429 C 773.855 628.770, 753 641.294, 753 644.266 C 753 644.807, 755.410 644.927, 758.750 644.553 C 769.431 643.358, 791.158 648.800, 802.692 655.560 C 808.805 659.142, 808.959 658.171, 803.142 652.730 C 797.350 647.312, 789.058 642.976, 779.750 640.499 C 776.038 639.511, 773 638.326, 773 637.866 C 773 635.569, 799.613 625, 805.398 625 C 806.829 625, 808 624.550, 808 624 C 808 622.053, 791.933 623.025, 784.368 625.429 M 271.759 648.506 C 245.809 657.578, 228.453 674.624, 217.636 701.661 C 208.816 723.705, 207.195 739.311, 211.510 760.651 C 214.597 775.921, 216.203 779.239, 223.441 785.289 C 226.806 788.102, 228.067 789.954, 228.529 792.764 C 229.318 797.558, 231.005 801, 232.565 801 C 233.239 801, 235.275 803.362, 237.089 806.250 C 247.915 823.485, 261.005 838.036, 289 863.954 C 322.412 894.886, 331 905.652, 331 916.603 C 331 925.547, 333.853 931.192, 342.893 940.135 C 351.914 949.060, 355.304 950.704, 367.243 951.943 C 393.644 954.684, 424.127 943.416, 445.352 923.069 C 468.206 901.161, 478.469 875.629, 470.113 861.467 C 465.250 853.225, 461.050 849.350, 454.850 847.386 C 449.391 845.657, 448.468 844.918, 443.755 838.500 C 440.927 834.650, 437.617 829.069, 436.398 826.098 C 435.180 823.128, 432.215 818.628, 429.810 816.098 C 427.405 813.569, 424.625 809.357, 423.632 806.738 C 422.051 802.570, 421.149 801.656, 416.408 799.413 C 413.428 798.003, 410.544 796.016, 409.998 794.997 C 409.453 793.978, 406.643 792.447, 403.753 791.595 C 398.878 790.158, 393.957 786.578, 390.811 782.180 C 390.090 781.171, 386.814 778.635, 383.530 776.545 C 376.252 771.910, 367.587 763.021, 360.581 753 C 354.467 744.256, 347.991 733.617, 348.021 732.369 C 348.033 731.891, 356.082 739.825, 365.908 750 C 375.733 760.175, 384.009 768.275, 384.299 768 C 384.589 767.725, 384.435 765.475, 383.957 763 C 383.478 760.525, 383.068 755.672, 383.044 752.215 C 383.018 748.514, 382.409 745.019, 381.563 743.715 C 378.736 739.358, 377.669 728.941, 379.540 723.957 C 381.368 719.088, 381.476 718.168, 381.192 709.918 C 381.002 704.399, 380.945 704.301, 376.073 701.144 C 373.363 699.388, 369.326 695.779, 367.103 693.123 C 363.194 688.455, 362.844 688.275, 356.504 687.683 C 348.755 686.959, 342.482 684.378, 335.551 679.062 C 332.773 676.931, 322.428 670.598, 312.562 664.988 C 302.696 659.379, 291.675 652.812, 288.072 650.395 C 280.555 645.352, 280.724 645.371, 271.759 648.506 M 438.715 649.058 C 416.661 654.479, 396.729 669.458, 390.907 684.988 C 389.776 688.006, 388.379 691.044, 387.803 691.738 C 386.136 693.746, 389.044 693.289, 392.500 691 C 397.057 687.982, 397.496 688.585, 393.978 693.028 C 389.612 698.540, 387.744 705.100, 388.536 712.138 C 388.937 715.699, 388.781 718.018, 388.112 718.431 C 385.692 719.927, 385.036 726.350, 386.624 733 C 387.478 736.575, 388.310 741.300, 388.471 743.500 C 389.013 750.860, 392.185 768.462, 393.574 771.808 C 397.632 781.589, 407.970 787.985, 408.024 780.750 C 408.057 776.484, 409.486 770.439, 411.632 765.488 C 413.945 760.154, 414.491 762.812, 413.141 772.843 C 411.789 782.885, 412.845 787.536, 417.432 791.750 C 422.383 796.297, 424.593 796.068, 425.282 790.936 C 425.852 786.686, 431.937 770.604, 432.690 771.357 C 432.929 771.595, 432.147 777.800, 430.952 785.145 C 429.152 796.217, 428.978 799.229, 429.932 802.763 C 432.177 811.071, 441.052 817.596, 449.060 816.825 C 451.978 816.544, 452.560 816.025, 453.345 813 C 455.368 805.208, 466.169 773.432, 467.112 772.500 C 467.793 771.826, 467.907 773.294, 467.461 777 C 466.018 788.966, 463.317 799.771, 456.896 819.254 C 452.945 831.243, 455.323 839.301, 463.619 842.039 C 470.914 844.447, 481.287 838.310, 486.601 828.442 C 487.621 826.549, 488.690 825.003, 488.977 825.007 C 489.265 825.011, 494.900 835.905, 501.500 849.216 C 508.100 862.526, 523.059 891.985, 534.742 914.679 C 553.868 951.833, 555.872 956.187, 554.865 958.397 C 552.632 963.299, 557.564 970.711, 564.605 973.035 C 566.828 973.768, 568.693 975.506, 570.419 978.453 C 575.721 987.499, 585.359 986.197, 586.693 976.253 C 587.400 970.984, 584.906 965.467, 580.695 962.982 C 578.823 961.878, 575.425 958.761, 573.145 956.057 C 570.864 953.352, 568.013 950.995, 566.809 950.819 C 565.103 950.571, 562.557 946.637, 555.273 933 C 544.003 911.902, 527.310 879.743, 519.456 864 C 509.166 843.373, 494.832 816.515, 493.761 815.852 C 493.185 815.496, 492.952 814.371, 493.244 813.352 C 493.535 812.334, 495.156 806.775, 496.845 801 C 498.533 795.225, 501.280 782.625, 502.949 773 C 506.654 751.626, 508.740 741.173, 509.033 742.500 C 509.155 743.050, 509.164 750.856, 509.054 759.847 L 508.854 776.194 512.584 783.347 C 518.180 794.078, 521.539 798.553, 525.356 800.365 C 530.199 802.663, 533.683 802.408, 536.545 799.545 C 539.757 796.334, 539.664 792.908, 536.163 785.500 C 534.604 782.200, 533.023 776.887, 532.649 773.694 C 532.231 770.122, 530.645 765.311, 528.529 761.194 C 525.745 755.776, 524.878 752.593, 523.986 744.500 C 521.309 720.229, 511.460 699.563, 489.195 671.500 C 485.267 666.550, 479.904 659.589, 477.277 656.032 C 473.512 650.933, 471.653 649.308, 468.500 648.359 C 462.386 646.517, 447.646 646.863, 438.715 649.058 M 500.008 663.820 C 500.020 664.736, 513.418 670.325, 524.500 674.036 C 546.903 681.539, 569.318 683.379, 592.388 679.612 C 609.623 676.797, 608.849 676.328, 585.973 675.724 C 574.163 675.412, 559.118 674.418, 552.539 673.515 C 540.782 671.902, 509.624 665.941, 503.250 664.086 C 501.462 663.565, 500.004 663.446, 500.008 663.820 M 505.047 789.272 L 503.930 794.656 526.224 839.578 C 545.420 878.257, 561.123 911.298, 568.907 929.389 C 570.064 932.078, 570.942 935.453, 570.859 936.889 C 570.775 938.325, 571.420 942.200, 572.293 945.500 C 573.704 950.839, 574.649 952.216, 580.879 958 C 585.960 962.717, 588.411 965.871, 589.816 969.500 C 591.493 973.832, 592.160 974.541, 594.815 974.809 C 597.489 975.078, 598.073 975.714, 599.413 979.809 C 602.542 989.374, 608.025 1009.308, 607.635 1009.699 C 606.010 1011.323, 595.896 994.118, 593.997 986.500 C 592.308 979.723, 591.520 979.129, 588.297 982.204 C 582.375 987.854, 575.294 987.846, 571.067 982.184 C 569.121 979.577, 569.062 979.564, 569.032 981.738 C 569.014 982.969, 570.394 988.328, 572.098 993.647 C 575.529 1004.359, 573.597 1001.948, 603.250 1032.522 C 609.186 1038.642, 614 1044.449, 614 1045.488 C 614 1046.524, 614.952 1048.384, 616.114 1049.622 L 618.229 1051.873 616.057 1051.305 C 611.704 1050.166, 602.533 1063.606, 601.278 1072.961 C 600.650 1077.649, 601.867 1078.500, 606.456 1076.583 C 610.879 1074.735, 610.910 1073.915, 605.834 1092.883 L 601.668 1108.451 596.515 1113.160 C 593.681 1115.750, 590.589 1119.586, 589.642 1121.685 L 587.922 1125.500 510.950 1125.363 C 462.620 1125.276, 433.758 1125.583, 433.385 1126.187 C 433.058 1126.715, 433.738 1128.156, 434.895 1129.388 C 436.053 1130.621, 437 1132.950, 436.999 1134.564 C 436.999 1137.065, 436.560 1136.574, 434.042 1131.250 C 431.133 1125.102, 431.019 1125, 427.042 1125 C 421.896 1125, 419.355 1127.449, 418.485 1133.249 C 417.722 1138.339, 419.282 1145.160, 421.661 1147.134 C 423.010 1148.252, 432.388 1148.478, 473.404 1148.381 C 500.957 1148.316, 526.425 1148.273, 530 1148.287 C 551.649 1148.368, 557.713 1148.363, 559.500 1148.262 C 567.704 1147.801, 586.493 1148.978, 586.825 1149.974 C 588.103 1153.808, 591.946 1156.468, 596.645 1156.772 C 604.598 1157.286, 605.258 1157.185, 608.203 1155.008 L 611.026 1152.921 637.593 1173.210 C 652.205 1184.370, 670.087 1198.092, 677.330 1203.704 C 705.664 1225.657, 709.117 1227.118, 716.118 1220.118 C 721.047 1215.189, 721.651 1208.560, 717.545 1204.455 C 711.504 1198.413, 700.869 1204.601, 700.712 1214.250 C 700.687 1215.763, 700.292 1217, 699.833 1217 C 699.375 1217, 699 1215.267, 699 1213.148 C 699 1207.403, 702.535 1202.750, 707.887 1201.450 L 712.212 1200.399 708.856 1197.855 C 700.921 1191.841, 696 1191.680, 691.520 1197.287 C 689.222 1200.163, 689.042 1200.238, 689.797 1198 C 690.306 1196.490, 692.280 1194.708, 694.784 1193.500 C 697.063 1192.400, 698.931 1191.275, 698.936 1191 C 698.941 1190.725, 694.661 1187.350, 689.425 1183.500 C 684.189 1179.650, 677.339 1174.429, 674.203 1171.899 C 665.866 1165.172, 664.622 1164.655, 662.480 1167.022 C 661.493 1168.113, 660.496 1171.189, 660.229 1173.971 C 659.965 1176.717, 659.344 1178.713, 658.850 1178.407 C 657.246 1177.416, 659.049 1167.634, 661.177 1165.778 C 663.546 1163.713, 663.265 1163.149, 658.072 1159.550 C 651.515 1155.006, 644.128 1157.838, 643.930 1164.973 C 643.867 1167.227, 643.776 1167.286, 643.085 1165.516 C 641.531 1161.539, 644.316 1157.545, 649.633 1156.123 L 652.481 1155.361 647.991 1152.209 C 645.521 1150.476, 642.825 1148.421, 642 1147.645 C 641.175 1146.868, 637.072 1143.782, 632.883 1140.787 C 621.671 1132.772, 613 1125.823, 613 1124.852 C 613 1122.523, 618.513 1124.484, 624.190 1128.835 C 627.661 1131.493, 631.063 1133.481, 631.750 1133.251 C 632.438 1133.021, 633 1133.276, 633 1133.816 C 633 1134.357, 637.103 1137.854, 642.117 1141.587 L 651.234 1148.375 677.367 1148.144 C 691.740 1148.017, 704.625 1147.889, 706 1147.859 C 714.051 1147.683, 731.154 1147.826, 735 1148.101 C 737.475 1148.278, 746.250 1148.361, 754.500 1148.284 C 762.750 1148.208, 774.101 1148.113, 779.724 1148.073 L 789.949 1148 791.474 1145.050 C 793.644 1140.853, 793.437 1132.228, 791.072 1128.350 L 789.151 1125.201 732.592 1125.169 C 700.881 1125.151, 675.793 1125.526, 675.487 1126.021 C 675.186 1126.507, 676.529 1128.986, 678.470 1131.529 C 680.612 1134.335, 682 1137.279, 682 1139.018 C 682 1142.747, 680.531 1143.661, 680.399 1140.014 C 680.344 1138.479, 678.544 1134.586, 676.399 1131.362 L 672.500 1125.500 659 1125.274 C 643.457 1125.014, 642.166 1125.230, 644.107 1127.762 C 644.840 1128.718, 644.255 1128.446, 642.808 1127.159 C 640.672 1125.258, 639.287 1124.882, 635.457 1125.159 L 630.737 1125.500 629.369 1120.854 C 627.891 1115.839, 622.806 1110.491, 618.482 1109.406 C 615.640 1108.693, 615.697 1109.033, 616.945 1100.192 C 617.464 1096.511, 618.608 1086.975, 619.488 1079 C 621.727 1058.686, 621.808 1058.304, 624.548 1055.243 C 629.634 1049.561, 633 1045.205, 633 1044.306 C 633 1042.871, 627.310 1039, 625.201 1039 C 624.129 1039, 622.767 1037.818, 622.032 1036.250 C 619.257 1030.329, 612.795 1012.392, 612.755 1010.500 C 612.733 1009.400, 611.399 1002.200, 609.793 994.500 C 608.186 986.800, 606.458 977.425, 605.953 973.666 C 604.872 965.628, 601.116 958.090, 596.971 955.642 C 591.822 952.600, 587.960 948.841, 585.964 944.929 C 583.211 939.534, 585.269 939.077, 588.853 944.287 C 592.753 949.955, 594.778 951.622, 596.126 950.274 C 596.848 949.552, 596.110 946.942, 593.719 941.767 C 590.145 934.033, 587.146 930.888, 584.101 931.684 C 582.651 932.063, 580.481 928.214, 572.058 910.323 C 566.408 898.320, 556.329 877.925, 549.661 865 C 542.993 852.075, 531.004 828.702, 523.019 813.060 C 515.033 797.418, 507.975 784.455, 507.332 784.254 C 506.625 784.032, 505.725 786.009, 505.047 789.272 M 501.500 809.998 C 500.962 812.448, 502.217 815.833, 508.357 828.498 L 515.872 844 519.436 844 C 523.776 844, 523.770 844.213, 519.645 836.651 C 517.801 833.268, 513.452 825.212, 509.981 818.750 C 506.511 812.288, 503.331 807, 502.915 807 C 502.499 807, 501.863 808.349, 501.500 809.998 M 445 827 C 447.137 831.188, 448.990 832.227, 449.014 829.250 C 449.021 828.288, 449.299 826.487, 449.630 825.250 C 450.175 823.219, 449.880 823, 446.596 823 L 442.959 823 445 827 M 716.863 828.027 C 709.495 828.923, 702.290 832.475, 699.910 836.387 C 697.480 840.381, 689.804 860.138, 690.437 860.770 C 690.701 861.034, 692.745 860.519, 694.979 859.625 C 708.972 854.026, 732.849 861.836, 748.043 876.981 C 755.548 884.461, 762 894.590, 762 898.890 C 762 903.157, 764.092 900.770, 768.364 891.628 C 770.773 886.474, 773.701 881.299, 774.872 880.128 C 781.380 873.620, 771.624 851.505, 757.500 840.751 C 745.383 831.525, 729.358 826.508, 716.863 828.027 M 359.256 837.528 C 363.153 840.176, 375.665 846.597, 382.500 849.456 C 390.866 852.956, 402.236 854.988, 413 854.907 L 423.500 854.829 410.500 851.531 C 396.814 848.058, 380.487 843.163, 365.562 838.058 C 354.750 834.359, 354.569 834.343, 359.256 837.528 M 485.723 840.103 C 484.225 841.809, 483 843.384, 483 843.603 C 483 843.821, 485.243 844, 487.984 844 L 492.968 844 491.299 840.500 C 489.266 836.237, 489.124 836.227, 485.723 840.103 M 694 866.583 C 688.256 868.633, 683.417 873.254, 681.593 878.434 C 679.192 885.249, 676.870 893.204, 677.194 893.501 C 677.362 893.655, 680.340 893.345, 683.810 892.812 C 695.067 891.084, 712.611 895.989, 725.300 904.411 C 733.181 909.642, 744.100 921.646, 747.593 928.920 C 749.192 932.249, 750.762 934.980, 751.082 934.987 C 751.403 934.994, 753.151 930.256, 754.967 924.457 C 758.984 911.627, 758.735 906.926, 753.474 896.262 C 747.442 884.037, 734.502 872.906, 720.432 867.841 C 712.559 865.007, 700.082 864.413, 694 866.583 M 475.070 893.751 C 467.764 914.323, 443.421 939.192, 420.490 949.507 C 415.978 951.537, 396.011 958, 394.252 958 C 394.113 958, 394 958.368, 394 958.817 C 394 959.267, 396.587 960.439, 399.750 961.421 C 406.097 963.394, 415 967.876, 415 969.100 C 415 970.790, 412.942 971.008, 410.722 969.554 C 406.089 966.518, 383.711 959.911, 379.083 960.212 L 374.666 960.500 373.209 967 C 372.408 970.575, 371.696 975.525, 371.626 978 C 371.534 981.279, 370.188 985.001, 366.667 991.715 C 360.821 1002.860, 356.029 1008.076, 349.968 1009.890 C 330.068 1015.845, 318.884 1031.467, 320.177 1051.500 L 320.500 1056.500 325.581 1058.187 C 340.011 1062.977, 374.966 1065.496, 393.503 1063.082 C 417.502 1059.956, 437.163 1050.110, 444.539 1037.524 C 445.918 1035.171, 449.425 1027.667, 452.331 1020.850 C 459.080 1005.023, 463.717 998.243, 477.659 983.824 C 483.868 977.402, 490.766 969.335, 492.989 965.896 C 505.376 946.731, 503.247 929.830, 484.991 902.399 C 481.002 896.404, 477.437 891.163, 477.069 890.751 C 476.702 890.339, 475.802 891.689, 475.070 893.751 M 672.331 900.873 C 670.038 901.949, 667.604 903.881, 666.923 905.165 C 666.241 906.449, 661.339 912, 656.028 917.500 C 637.742 936.438, 632.418 947.194, 630.985 968.095 C 630.510 975.023, 629.194 984.323, 628.061 988.762 C 626.927 993.201, 626 998.683, 626 1000.943 C 626 1003.204, 625.051 1008.715, 623.890 1013.191 C 621.693 1021.668, 621.761 1026.677, 624.139 1031.559 C 626.200 1035.790, 627.402 1035.515, 630.327 1030.141 C 632.842 1025.520, 637.521 1021.188, 638.711 1022.378 C 639.007 1022.674, 638.068 1024.319, 636.624 1026.035 C 635.181 1027.750, 633.737 1030.357, 633.416 1031.827 C 633.095 1033.297, 632.638 1035.120, 632.399 1035.877 C 631.778 1037.847, 633.877 1040, 636.419 1040 C 639.815 1040, 653.347 1030.586, 656.244 1026.207 C 660.176 1020.266, 662.699 1010.658, 663.519 998.500 C 664.488 984.147, 665.105 982.369, 667.504 987.008 C 669.336 990.550, 669.649 991.984, 669.872 997.854 L 670 1001.207 673.701 997.957 C 679.082 993.233, 678.988 996.050, 673.558 1002.245 C 670.836 1005.351, 668.556 1009.135, 667.982 1011.500 C 664.173 1027.201, 661.157 1031.082, 644 1042.368 C 630.197 1051.447, 625.067 1058.470, 625.022 1068.350 C 625.003 1072.579, 625.451 1073.651, 628.519 1076.719 C 631.879 1080.079, 632.296 1080.218, 637.769 1079.797 C 644.956 1079.244, 654.576 1074.844, 673.923 1063.264 C 690.477 1053.355, 694.099 1050.464, 696.500 1045.244 C 699.634 1038.431, 707.382 1025.645, 707.734 1026.703 C 708.567 1029.200, 697.636 1053.254, 694.359 1056.135 C 691.427 1058.714, 669.173 1072.393, 662 1076.027 L 655.500 1079.319 659.500 1081.193 C 665.373 1083.945, 677.691 1083.135, 689.673 1079.209 C 705.096 1074.156, 705.270 1073.973, 717.975 1049.500 C 725.328 1035.334, 727 1032.607, 727 1034.777 C 727 1037.607, 721.454 1050.358, 715.884 1060.334 C 712.557 1066.293, 710.076 1071.409, 710.371 1071.704 C 711.446 1072.779, 715.753 1070.969, 720.200 1067.574 C 725.340 1063.649, 728.657 1058.481, 732.124 1049 C 733.898 1044.146, 734.585 1043.098, 734.834 1044.862 C 735.652 1050.642, 748.187 1026.452, 752.511 1010.751 C 753.934 1005.584, 753.363 994.856, 750.395 971 C 749.540 964.125, 748.452 954.773, 747.978 950.217 C 745.762 928.922, 729.422 911.179, 703.500 901.918 C 694.652 898.756, 678.026 898.199, 672.331 900.873 M 577.200 934.200 C 575.785 935.615, 575.635 939.965, 576.891 943.203 C 579.946 951.082, 581.410 953.943, 582.625 954.410 C 584.630 955.179, 584.326 953.587, 581.400 947.991 C 578.620 942.675, 578.029 936.875, 580.022 934.473 C 581.579 932.598, 579.047 932.353, 577.200 934.200 M 505.120 951.821 C 502.181 964.651, 496.568 973.222, 479.466 991 C 468.479 1002.421, 463.247 1010.351, 456.584 1025.685 C 454.239 1031.083, 451.517 1037.075, 450.535 1039 C 437.237 1065.085, 392.280 1077.522, 341.971 1069.033 C 330.205 1067.048, 323.211 1065.023, 319.328 1062.479 C 317.335 1061.174, 317.065 1061.218, 316.517 1062.945 C 315.676 1065.595, 317.772 1085.020, 319.067 1086.581 C 320.578 1088.402, 328.533 1090.935, 330.843 1090.331 C 331.917 1090.050, 333.855 1090.514, 335.150 1091.362 C 337.681 1093.021, 347.861 1094.791, 357.390 1095.229 L 363.279 1095.500 364.473 1092 C 366.279 1086.702, 370.294 1086.550, 372.742 1091.687 L 374.559 1095.500 384.022 1095.208 C 394.210 1094.894, 394.938 1094.575, 396.584 1089.706 C 398.048 1085.378, 400.993 1085.054, 403.203 1088.977 C 405.263 1092.631, 407.261 1092.781, 416.385 1089.963 C 423.110 1087.886, 423.281 1087.703, 424.211 1081.607 C 424.370 1080.566, 425.318 1079.216, 426.317 1078.607 C 427.821 1077.691, 428.530 1077.990, 430.428 1080.341 L 432.721 1083.183 436.833 1081.085 C 444.303 1077.274, 448 1073.280, 448 1069.019 C 448 1064.407, 450.185 1062.079, 452.618 1064.098 C 454.018 1065.259, 454.558 1065.039, 456.615 1062.471 C 460.579 1057.521, 462 1053.491, 462 1047.204 C 462 1037.112, 467.318 1022.549, 473.304 1016.250 C 477.213 1012.137, 478.326 1012.173, 481 1016.500 C 484.104 1021.522, 486.498 1021.082, 493.222 1014.250 C 497.924 1009.472, 498.933 1007.824, 499.190 1004.500 C 499.478 1000.788, 499.736 1000.477, 502.769 1000.185 C 507.029 999.775, 509.443 996.294, 508.487 991.941 C 507.863 989.098, 507.992 988.863, 509.852 989.453 C 512.696 990.356, 516.366 983.259, 516.292 977 C 516.241 972.633, 508.731 947.570, 507.188 946.616 C 506.767 946.356, 505.836 948.698, 505.120 951.821 M 586.022 990.576 C 586.058 993.742, 589.734 1000.896, 594.927 1007.906 C 597.613 1011.533, 603.497 1020.575, 608 1028 C 612.504 1035.425, 616.821 1042.159, 617.594 1042.964 C 624.159 1049.803, 608.368 1017.125, 600.988 1008.599 C 598.179 1005.354, 594.827 1000.629, 593.539 998.099 C 590.553 992.234, 585.989 987.665, 586.022 990.576 M 397.027 997.471 C 394.236 1000.442, 386.974 1002.942, 381.500 1002.817 C 377.362 1002.722, 370 1004.916, 370 1006.245 C 370 1006.660, 371.374 1007, 373.053 1007 C 377.491 1007, 389.124 1009.805, 396.225 1012.588 C 403.196 1015.320, 403 1015.273, 403 1014.212 C 403 1013.779, 400.068 1011.497, 396.485 1009.141 C 389.385 1004.473, 389.240 1003.688, 395.047 1001.364 C 397.180 1000.511, 399.208 998.921, 399.554 997.831 C 400.499 994.852, 399.607 994.725, 397.027 997.471 M 861.500 1017 C 861.160 1017.550, 860.025 1018, 858.978 1018 C 854.795 1018, 845.977 1022.280, 841.424 1026.520 C 838.793 1028.970, 836.840 1031.173, 837.083 1031.417 C 837.326 1031.660, 840.670 1030.372, 844.513 1028.555 C 851.321 1025.336, 862.584 1022, 866.647 1022 C 870.118 1022, 870.043 1020.840, 866.413 1018.376 C 862.422 1015.668, 862.338 1015.644, 861.500 1017 M 741.669 1051.263 C 735.765 1060.269, 735 1061.990, 735 1066.273 L 735 1071.110 740.737 1073.647 C 745.247 1075.642, 746.855 1075.947, 748.255 1075.073 C 749.730 1074.152, 750.186 1074.360, 750.921 1076.291 C 751.582 1078.030, 753.630 1079.241, 758.987 1081.061 L 766.167 1083.500 768.334 1080.894 C 769.525 1079.461, 771.010 1077.436, 771.633 1076.394 C 772.742 1074.538, 772.840 1074.540, 776.462 1076.450 C 781.798 1079.265, 784.647 1083.140, 785.454 1088.679 C 786.306 1094.533, 788.075 1097.470, 791.955 1099.477 C 794.722 1100.908, 794.979 1100.868, 796.436 1098.788 C 798.356 1096.046, 799.741 1097.235, 800.179 1102 C 800.461 1105.078, 801.075 1105.775, 805.271 1107.779 C 813.165 1111.550, 815.225 1111.599, 817.197 1108.064 C 819.069 1104.708, 822 1104.774, 822 1108.173 C 822 1111.992, 823.901 1113.813, 829.039 1114.915 C 837.904 1116.816, 840.862 1116.406, 842.797 1113.006 C 845.157 1108.857, 848.825 1108.873, 849.657 1113.036 C 850.562 1117.558, 852.924 1118.319, 863.589 1117.519 L 872.904 1116.821 874.030 1113.410 C 875.481 1109.011, 878.367 1108.875, 880.553 1113.102 C 882.089 1116.073, 882.353 1116.177, 886.828 1115.564 C 895.207 1114.417, 897 1113.863, 897 1112.421 C 897 1110.714, 897.478 1110.657, 899.775 1112.091 C 901.058 1112.893, 902.980 1112.826, 907.011 1111.841 C 912.192 1110.575, 912.528 1110.304, 913 1107 C 913.652 1102.439, 917.357 1101.494, 919.151 1105.432 C 920.539 1108.479, 922.094 1108.594, 927.669 1106.063 C 933.338 1103.489, 934 1101.772, 934 1089.648 C 934 1075.756, 934.023 1075.800, 928.202 1078.681 C 909.772 1087.801, 857.712 1093.641, 831.508 1089.527 C 811.098 1086.322, 805.242 1083.229, 788 1066.548 C 774.726 1053.706, 776.985 1055.161, 748.919 1041.376 C 748.599 1041.219, 745.336 1045.668, 741.669 1051.263 M 510.881 1054.503 C 505.232 1057.573, 503.489 1067.585, 507.870 1071.806 C 508.837 1072.738, 514.933 1077.550, 521.415 1082.500 C 543.596 1099.436, 562.499 1114.004, 568.131 1118.503 C 573.508 1122.797, 574.057 1123, 580.283 1123 C 586.665 1123, 586.827 1122.934, 587.876 1119.926 C 588.466 1118.235, 590.331 1115.559, 592.022 1113.980 L 595.095 1111.109 592.298 1109.372 C 590.759 1108.417, 588.287 1106.532, 586.804 1105.183 C 584.364 1102.963, 583.722 1102.827, 580.054 1103.758 C 577.824 1104.324, 576 1104.394, 576 1103.913 C 576 1103.432, 577.202 1102.736, 578.672 1102.367 L 581.344 1101.697 578.156 1098.848 C 576.403 1097.282, 573.830 1096, 572.439 1096 C 569.369 1096, 565 1100.119, 565 1103.014 C 565 1104.217, 564.554 1104.843, 563.959 1104.475 C 561.735 1103.100, 566.621 1095, 569.674 1095 C 572.096 1095, 571.049 1093.209, 566.803 1090.087 C 560.428 1085.398, 555.232 1086.204, 552.567 1092.293 L 551.163 1095.500 551.082 1092.307 C 550.995 1088.909, 553.827 1086, 557.223 1086 C 559.988 1086, 559.339 1084.433, 555.250 1081.237 C 547.211 1074.953, 546.514 1074.683, 543.010 1076.495 C 541.055 1077.506, 539.163 1079.704, 538.004 1082.310 C 536.557 1085.565, 536.126 1085.987, 536.071 1084.200 C 535.962 1080.655, 538.802 1076.028, 541.798 1074.869 L 544.500 1073.825 540.583 1070.412 C 538.429 1068.536, 536.175 1067, 535.574 1067 C 534.973 1067, 533.910 1066.086, 533.212 1064.968 C 532.514 1063.850, 530.555 1062.092, 528.858 1061.060 C 525.329 1058.914, 521.234 1059.709, 517.250 1063.313 C 516.013 1064.433, 515 1064.820, 515 1064.174 C 515 1062.316, 518.808 1059, 520.941 1059 C 524.137 1059, 524.210 1057.285, 521.107 1055.076 C 517.730 1052.671, 514.577 1052.495, 510.881 1054.503 M 613.490 1057.484 C 607.477 1063.793, 603.671 1073.827, 607.750 1072.615 C 612.894 1071.087, 615 1070.862, 615 1071.840 C 615 1072.713, 608.082 1100.292, 606.369 1106.250 C 605.960 1107.671, 606.501 1108, 609.248 1108 L 612.632 1108 613.915 1095.250 C 614.621 1088.237, 615.532 1079.575, 615.939 1076 C 616.748 1068.894, 616.449 1067, 614.515 1067 C 613.817 1067, 612.712 1066.357, 612.060 1065.572 C 611.107 1064.423, 611.590 1063.353, 614.530 1060.099 C 619.462 1054.640, 618.501 1052.226, 613.490 1057.484 M 526.073 1069.635 C 524.933 1071.084, 524.018 1073.222, 524.039 1074.385 C 524.069 1076.024, 524.399 1075.761, 525.505 1073.216 C 526.383 1071.195, 528.195 1069.383, 530.216 1068.505 C 533.446 1067.102, 533.456 1067.078, 530.823 1067.039 C 529.090 1067.014, 527.414 1067.930, 526.073 1069.635 M 575.425 1109.547 C 574.602 1113.938, 575.584 1115.225, 576.972 1111.574 C 578.258 1108.190, 578.287 1106, 577.045 1106 C 576.520 1106, 575.791 1107.596, 575.425 1109.547 M 606.166 1113.062 C 602.967 1114.344, 603.997 1116.578, 607.605 1116.182 C 610.985 1115.811, 612.502 1114.622, 611.554 1113.087 C 610.757 1111.798, 609.336 1111.792, 606.166 1113.062 M 614.594 1113.848 C 614.278 1114.359, 615.703 1116.028, 617.760 1117.556 C 619.817 1119.085, 622.542 1121.497, 623.816 1122.918 L 626.133 1125.500 625.506 1122.500 C 624.473 1117.554, 616.306 1111.078, 614.594 1113.848 M 597.368 1118.750 C 592.025 1124.424, 589.719 1130.307, 589.623 1138.500 C 589.537 1145.911, 591.721 1152, 594.466 1152 C 595.682 1152, 595.679 1151.612, 594.447 1149.250 C 592.710 1145.921, 592.541 1134.649, 594.156 1129.899 C 594.792 1128.030, 597.042 1124.304, 599.156 1121.619 C 605.028 1114.164, 603.696 1112.028, 597.368 1118.750 M 606.418 1120.969 C 601.242 1123.063, 597.017 1131.282, 597.006 1139.282 C 596.995 1146.263, 601.780 1153.789, 605.355 1152.417 C 607.728 1151.507, 607.403 1150.461, 603.897 1147.716 C 601.067 1145.501, 600.788 1144.768, 600.739 1139.394 C 600.660 1130.679, 604.294 1124.938, 612.007 1121.593 L 615.500 1120.078 612 1120.103 C 610.075 1120.116, 607.563 1120.506, 606.418 1120.969 M 524 1127.671 C 524 1128.231, 524.883 1129.489, 525.962 1130.466 C 527.042 1131.443, 528.436 1133.793, 529.062 1135.688 C 529.688 1137.583, 530.424 1138.909, 530.699 1138.634 C 531.690 1137.644, 528.889 1131.244, 526.471 1128.973 C 525.112 1127.696, 524 1127.110, 524 1127.671 M 659.845 1132.506 C 661.305 1135.460, 662.886 1137.904, 663.358 1137.938 C 664.594 1138.027, 663.193 1133.146, 661.198 1130.412 C 657.964 1125.980, 657.202 1127.160, 659.845 1132.506 M 453.436 1130.823 C 454.574 1133.059, 454.908 1135.185, 454.458 1137.323 C 453.980 1139.593, 454.099 1140.206, 454.876 1139.469 C 457.449 1137.026, 457.249 1132.581, 454.449 1129.996 L 451.746 1127.500 453.436 1130.823 M 474.033 1128.316 C 474.015 1128.764, 474.528 1130.114, 475.174 1131.316 C 475.819 1132.517, 476.673 1134.850, 477.071 1136.500 L 477.795 1139.500 477.898 1135.861 C 477.962 1133.587, 477.262 1131.336, 476.033 1129.861 C 474.952 1128.562, 474.052 1127.867, 474.033 1128.316 M 489.994 1132.150 C 491.647 1134.433, 493 1136.934, 493 1137.709 C 493 1138.484, 493.460 1138.834, 494.023 1138.486 C 495.373 1137.652, 490.137 1128, 488.335 1128 C 487.471 1128, 488.067 1129.491, 489.994 1132.150 M 507.036 1128.136 C 507.016 1128.485, 507.672 1130.060, 508.494 1131.636 C 509.315 1133.211, 509.990 1135.513, 509.994 1136.750 C 509.997 1137.987, 510.450 1139, 511 1139 C 512.924 1139, 511.968 1133.474, 509.531 1130.500 C 508.179 1128.850, 507.056 1127.786, 507.036 1128.136 M 546.975 1129.975 C 548.061 1131.061, 549.239 1133.105, 549.594 1134.518 C 549.949 1135.931, 550.747 1136.918, 551.369 1136.711 C 553.562 1135.981, 553.108 1133.005, 550.424 1130.517 C 547.142 1127.475, 543.977 1126.977, 546.975 1129.975 M 771.011 1131.250 C 772.101 1133.037, 772.994 1135.513, 772.996 1136.750 C 772.998 1137.987, 773.403 1139, 773.895 1139 C 774.953 1139, 773.822 1133.405, 772.121 1130.226 C 771.466 1129.002, 770.502 1128, 769.980 1128 C 769.457 1128, 769.921 1129.463, 771.011 1131.250 M 617.815 1136.250 C 616.137 1137.588, 614.674 1143.340, 615.740 1144.407 C 616.094 1144.760, 616.859 1143.588, 617.441 1141.801 C 618.024 1140.014, 619.520 1138.045, 620.768 1137.425 C 624.255 1135.692, 624.566 1135, 621.858 1135 C 620.496 1135, 618.677 1135.563, 617.815 1136.250 M 627.923 1144.923 C 626.315 1146.531, 625.014 1148.668, 625.030 1149.673 C 625.058 1151.339, 625.155 1151.324, 626.125 1149.500 C 626.710 1148.400, 628.592 1146.263, 630.307 1144.750 C 632.021 1143.237, 632.844 1142, 632.135 1142 C 631.426 1142, 629.531 1143.315, 627.923 1144.923 M 680.248 1185.250 C 678.169 1187.478, 676.170 1193, 677.444 1193 C 677.807 1193, 678.589 1191.608, 679.183 1189.906 C 679.776 1188.204, 681.665 1185.956, 683.381 1184.910 C 685.991 1183.318, 686.161 1183.007, 684.424 1183.004 C 683.283 1183.002, 681.404 1184.013, 680.248 1185.250" stroke="none" fill="#000000" fill-rule="evenodd"/>
</svg>